<svg xmlns="http://www.w3.org/2000/svg" viewBox="0 0 500 500"><g id="freepik--background-complete--inject-350"><path d="M390.73,302a19.05,19.05,0,0,1-19.56,4.6l11-11.05-3.87-8.14-8.15-3.88-11.05,11A19.09,19.09,0,1,1,390.73,302Z" style="fill:#ebebeb"></path><path d="M424.65,214.05a19.07,19.07,0,0,1,19.57-4.6L433.17,220.5l3.88,8.14,8.14,3.88,11.06-11.05a19.09,19.09,0,1,1-31.6-7.42Z" style="fill:#ebebeb"></path><rect x="399.96" y="222.65" width="17" height="69.17" transform="translate(301.52 -213.48) rotate(45)" style="fill:#ebebeb"></rect><path d="M104.08,206.85c4.76,19.61-6,27.54-6.2,33.3a94,94,0,0,0,1.05,10.54L79.29,258a89.72,89.72,0,0,0-6.07-8.68C69.35,245,56,246,46.83,228.06c-6-11.82-4-34.76,16.82-42.46S100.93,194,104.08,206.85Z" style="fill:#ebebeb"></path><rect x="75.58" y="225.92" width="0.97" height="33.89" transform="matrix(0.86, -0.51, 0.51, 0.86, -113.91, 73.52)" style="fill:#fff"></rect><rect x="91.06" y="220.18" width="0.97" height="33.89" transform="translate(-38.89 18.96) rotate(-9.76)" style="fill:#fff"></rect><path d="M81.86,234.74h0c-1.53.56-3.53-.08-5.63-1.82l-.31-.27a2.56,2.56,0,0,1-1.34,1.57h0c-2.93,1.08-6.34-4.53-6.48-4.77l.41-.25c0,.06,3.35,5.51,5.9,4.57h0a2.23,2.23,0,0,0,1.12-1.47c-2.19-2.09-4.13-5.17-3.82-7A1.57,1.57,0,0,1,72.76,224h0a1.9,1.9,0,0,1,1.94.31c1.45,1.2,2,4.61,1.56,7.05a7.5,7.5,0,0,1-.18.78l.46.4c1.13.94,3.31,2.41,5.15,1.73h0c1.23-.45,2.1-1.87,2.46-4,0-.18.06-.37.09-.56a8.56,8.56,0,0,1-3.75-4.58c-.8-2.17-.49-3.81.81-4.3h0a1.46,1.46,0,0,1,1.5.3c1.43,1.18,2.28,5,2,8.31a3.07,3.07,0,0,0,2.31.09c1.82-.68,1.82-5.57,1.66-7.4l.48,0c0,.29.56,7-2,7.9h0a3.51,3.51,0,0,1-2.53-.06c0,.14,0,.29-.07.43C84.35,232,83.65,234.07,81.86,234.74Zm-.39-13.45c-1.23.46-1,2.27-.53,3.68a8.58,8.58,0,0,0,3.35,4.25c.26-3.12-.52-6.65-1.8-7.71A1,1,0,0,0,81.47,221.29Zm-8.54,3.17a1.08,1.08,0,0,0-.74.91c-.25,1.48,1.32,4.28,3.49,6.4,0-.15.07-.31.1-.48.39-2.26-.09-5.52-1.39-6.6a1.38,1.38,0,0,0-1.46-.23Z" style="fill:#fff"></path><rect x="76.76" y="253.33" width="25.84" height="5.05" transform="translate(-83.31 47.1) rotate(-20.33)" style="fill:#c7c7c7"></rect><rect x="78.8" y="258.83" width="25.84" height="5.05" transform="translate(-85.09 48.15) rotate(-20.33)" style="fill:#c7c7c7"></rect><rect x="80.84" y="264.33" width="25.84" height="5.05" transform="translate(-86.88 49.2) rotate(-20.33)" style="fill:#c7c7c7"></rect><path d="M51.06,225.43a16.61,16.61,0,0,1-1.94-4.9,28.09,28.09,0,0,1-.78-5.24,29.72,29.72,0,0,1,1.28-10.61,22.45,22.45,0,0,1,5.58-9.32,18.89,18.89,0,0,1,4.37-3.2,17.38,17.38,0,0,1,5-1.68,44.16,44.16,0,0,0-3.93,3.22,28.75,28.75,0,0,0-3.18,3.66,29.47,29.47,0,0,0-4.18,8.49,48.9,48.9,0,0,0-1.94,9.51c-.18,1.64-.3,3.29-.37,5A39.61,39.61,0,0,0,51.06,225.43Z" style="fill:#fff;opacity:0.5"></path><path d="M193.48,208.17a31.47,31.47,0,1,0-34.17,28.51A31.47,31.47,0,0,0,193.48,208.17Zm-16.7-1.5a14.7,14.7,0,1,1-13.32-16A14.7,14.7,0,0,1,176.78,206.67Z" style="fill:#c7c7c7"></path><polygon points="165.45 235.93 153.4 234.84 153.3 243.43 164.02 244.4 165.45 235.93" style="fill:#c7c7c7"></polygon><polygon points="142.88 229.79 135.13 220.5 128.98 226.5 135.88 234.77 142.88 229.79" style="fill:#c7c7c7"></polygon><polygon points="131.26 209.5 132.35 197.45 123.76 197.35 122.79 208.06 131.26 209.5" style="fill:#c7c7c7"></polygon><polygon points="137.39 186.93 146.68 179.18 140.68 173.03 132.42 179.93 137.39 186.93" style="fill:#c7c7c7"></polygon><polygon points="157.68 175.31 169.73 176.39 169.84 167.8 159.12 166.84 157.68 175.31" style="fill:#c7c7c7"></polygon><polygon points="180.25 181.44 188 190.73 194.15 184.73 187.26 176.46 180.25 181.44" style="fill:#c7c7c7"></polygon><polygon points="191.88 201.73 190.79 213.78 199.38 213.88 200.35 203.17 191.88 201.73" style="fill:#c7c7c7"></polygon><polygon points="185.75 224.3 176.46 232.05 182.46 238.2 190.72 231.31 185.75 224.3" style="fill:#c7c7c7"></polygon><path d="M154.43,211.78l9.43,3.46,7.71-6.44-1.72-9.89-9.42-3.46-7.72,6.43Zm8-9.61a3.19,3.19,0,1,1-3.46,2.89A3.18,3.18,0,0,1,162.43,202.17Z" style="fill:#c7c7c7"></path><path d="M272,141.4a31.29,31.29,0,1,0-34,28.36A31.33,31.33,0,0,0,272,141.4Zm-6.64-.6a24.63,24.63,0,1,1-22.3-26.74A24.62,24.62,0,0,1,265.4,140.8Zm6.64.6a31.29,31.29,0,1,0-34,28.36A31.33,31.33,0,0,0,272,141.4Zm-6.64-.6a24.63,24.63,0,1,1-22.3-26.74A24.62,24.62,0,0,1,265.4,140.8Zm28,2.53a52.75,52.75,0,1,0-57.27,47.8A52.75,52.75,0,0,0,293.41,143.33ZM275,141.67A34.29,34.29,0,1,1,244,104.43,34.34,34.34,0,0,1,275,141.67Zm-3-.27a31.29,31.29,0,1,0-34,28.36A31.33,31.33,0,0,0,272,141.4Zm-6.64-.6a24.63,24.63,0,1,1-22.3-26.74A24.62,24.62,0,0,1,265.4,140.8Z" style="fill:#dbdbdb"></path><polygon points="242.39 190.74 230.36 189.65 230.47 201.77 240.1 202.64 242.39 190.74" style="fill:#dbdbdb"></polygon><polygon points="216.11 184.51 206.24 177.55 200.28 188.1 208.18 193.67 216.11 184.51" style="fill:#dbdbdb"></polygon><polygon points="196.47 165.97 191.4 155.01 180.96 161.17 185.02 169.95 196.47 165.97" style="fill:#dbdbdb"></polygon><polygon points="188.73 140.1 189.81 128.07 177.7 128.19 176.83 137.82 188.73 140.1" style="fill:#dbdbdb"></polygon><polygon points="194.96 113.83 201.91 103.95 191.36 97.99 185.79 105.9 194.96 113.83" style="fill:#dbdbdb"></polygon><polygon points="213.49 94.19 224.45 89.11 218.29 78.68 209.52 82.74 213.49 94.19" style="fill:#dbdbdb"></polygon><polygon points="239.36 86.44 251.39 87.53 251.28 75.42 241.64 74.55 239.36 86.44" style="fill:#dbdbdb"></polygon><polygon points="265.64 92.67 275.51 99.63 281.47 89.08 273.56 83.51 265.64 92.67" style="fill:#dbdbdb"></polygon><polygon points="285.28 111.21 290.35 122.17 300.79 116.01 296.72 107.23 285.28 111.21" style="fill:#dbdbdb"></polygon><polygon points="293.02 137.08 291.93 149.11 304.05 148.99 304.92 139.36 293.02 137.08" style="fill:#dbdbdb"></polygon><polygon points="286.79 163.35 279.83 173.23 290.38 179.19 295.95 171.28 286.79 163.35" style="fill:#dbdbdb"></polygon><polygon points="268.26 182.99 257.3 188.07 263.45 198.5 272.23 194.44 268.26 182.99" style="fill:#dbdbdb"></polygon><path d="M369.12,197.44a36.35,36.35,0,1,0-40.32,31.89A36.35,36.35,0,0,0,369.12,197.44Zm-19.24-2.25A17,17,0,1,1,335,176.36,17,17,0,0,1,349.88,195.19Z" style="fill:#c7c7c7"></path><polygon points="335.91 228.64 322.03 227.01 321.65 236.93 334 238.38 335.91 228.64" style="fill:#c7c7c7"></polygon><polygon points="310.04 220.87 301.37 209.91 294.08 216.65 301.8 226.4 310.04 220.87" style="fill:#c7c7c7"></polygon><polygon points="297.23 197.08 298.85 183.2 288.94 182.81 287.49 195.16 297.23 197.08" style="fill:#c7c7c7"></polygon><polygon points="305 171.2 315.96 162.53 309.22 155.25 299.47 162.96 305 171.2" style="fill:#c7c7c7"></polygon><polygon points="328.79 158.4 342.67 160.02 343.06 150.1 330.71 148.66 328.79 158.4" style="fill:#c7c7c7"></polygon><polygon points="354.67 166.16 363.34 177.13 370.62 170.39 362.91 160.63 354.67 166.16" style="fill:#c7c7c7"></polygon><polygon points="367.47 189.96 365.85 203.84 375.77 204.22 377.21 191.87 367.47 189.96" style="fill:#c7c7c7"></polygon><polygon points="359.7 215.83 348.74 224.5 355.48 231.78 365.24 224.07 359.7 215.83" style="fill:#c7c7c7"></polygon><path d="M322.6,201.22l11.55,4.6,9.75-7.72-1.8-12.29-11.54-4.59-9.76,7.71Zm10.21-11.61a3.94,3.94,0,1,1-4.37,3.45A3.92,3.92,0,0,1,332.81,189.61Z" style="fill:#c7c7c7"></path></g><g id="freepik--Plants--inject-350"><path d="M428.75,393.86c-3.37-4.34-7.2-9.14-7-14.91.22-5.33,2-11.24,6.9-14.07,1.4-.81,2.42-1.09,2.87.71.68,2.73-.49,6.06-1.07,8.72a55.36,55.36,0,0,0-1.42,10.41c-.07,2.46.1,4.93.09,7.39,0,.31,0,.62,0,.94,0,.11,0,.23,0,.35l.09.13a.29.29,0,0,1,0,.25.2.2,0,0,1-.05.09A.29.29,0,0,1,428.75,393.86Z" style="fill:#7505FF"></path><path d="M429.2,393.87c-2.75-4-6-8.07-5.57-13.12a22.47,22.47,0,0,1,1.8-6.83c.42-1,1.64-3.92,2.92-4,2.32-.12-.78,9.2-.93,10.29a23.48,23.48,0,0,0,1.73,11.89c0,.31,0,.62,0,.94a26.4,26.4,0,0,1-2.18-8.3c-.35-4,1-7.29,1.72-11.12.16-.83.8-3.45-.62-3.23-.94.13-2.15,3-2.41,3.61a22.36,22.36,0,0,0-1.72,6.47c-.48,5.09,2.64,9.23,5.32,13.3A.2.2,0,0,1,429.2,393.87Z" style="fill:#fff"></path><path d="M427.8,398.28l-.6.26h0a.16.16,0,0,1-.15,0,.24.24,0,0,1-.07-.3.12.12,0,0,1,.1-.08l.09,0,.18-.06v0l0-.05c2.38-2.91,5.23-5.43,7.59-8.39s4.3-5.8,6.76-8.44c1.55-1.66,9.75-9.47,11.5-4.65.77,2.14-.92,5.21-2,7a22.91,22.91,0,0,1-5.47,6.18C440.44,394,433.93,395.58,427.8,398.28Z" style="fill:#7505FF"></path><path d="M440.05,391.41a26.84,26.84,0,0,0,5.71-5.08c.57-.69,3.29-4,2.39-5-.57-.7-2.11.22-2.63.5-2.21,1.2-3.8,3.35-5.49,5.16a103.07,103.07,0,0,1-11.09,10.22c-.28.14-.58.29-.85.45l-.71.38-.24.13-.18.1a.23.23,0,0,0,.07.3l.55-.29-.4.31h0l.48-.22.12-.05.66-.5A110.26,110.26,0,0,0,440.05,391.41Zm-10.16,5.26c2.31-1.83,4.51-3.78,6.64-5.82,1.71-1.64,3.34-3.36,4.93-5.11a24.57,24.57,0,0,1,2.85-2.83c.81-.63,4-2.72,3.2.23-.56,2.13-3.3,4.53-4.89,5.88a38.94,38.94,0,0,1-5.73,4C434.6,394.29,432.23,395.46,429.89,396.67Z" style="fill:#fff"></path><path d="M417.29,409.49h0a2,2,0,0,1-.13-.15c-2.73-4.23-7-9.39-6.77-14.72.19-3.94,2.36-9.24,6.27-10.85,4.42-1.81,3.56,6.53,3.44,8.66a152.35,152.35,0,0,1-2.54,17l0,.1a0,0,0,0,0,0,0C417.47,409.63,417.37,409.57,417.29,409.49Z" style="fill:#7505FF"></path><path d="M417.51,409.54c0-.34-.05-.68-.07-1-.24-3.9-.32-7.81-.19-11.71,0-1,.81-8.51-1.15-8.15-1.18.22-1.89,3-2.15,3.95a15.34,15.34,0,0,0-.54,5.09c.26,3.93,2.27,7.49,3.67,11.16.07.16.14.34.2.51v.11h0C417.38,409.56,417.47,409.62,417.51,409.54ZM414,399.8a15.82,15.82,0,0,1-.15-5.23c.16-1.15.86-5.32,2.33-5.4.77,0,.69.45.84,1.33a9.89,9.89,0,0,1,.13,1.22c0,1,0,2-.08,3-.09,1.77-.14,3.52-.15,5.29,0,2.89.09,5.78.28,8.66C416.21,405.69,414.65,402.89,414,399.8Z" style="fill:#fff"></path><path d="M431.05,410.89a29.78,29.78,0,0,1-17.24,1.8.31.31,0,0,1-.1-.05.23.23,0,0,1-.07-.26.21.21,0,0,1,.25-.15l.36.06c6-3.32,12.07-6.54,18.05-10,1.4-.81,10.48-5.78,11-2.24.3,2.18-3,4.75-4.48,6A29.76,29.76,0,0,1,431.05,410.89Z" style="fill:#7505FF"></path><path d="M437.42,404.06c.36-.47.66-1.05,0-1.34-1.33-.54-5.54,1.88-6.74,2.5-5,2.53-10,4.57-15.18,6.64l-1.31.53h-.51a.21.21,0,0,0,.07.26l.14,0h.69A35.3,35.3,0,0,0,425.32,411a33.26,33.26,0,0,0,6.33-2.76C433.51,407.18,436.11,405.79,437.42,404.06Zm-22.59,8.31h-.33l.55-.19a97.47,97.47,0,0,0,12-4.82c2-1,3.86-2.05,5.86-2.94.84-.37,3.19-1.52,4-1.15s-.05.93-.48,1.33-.92.73-1.23,1A34.63,34.63,0,0,1,414.83,412.37Z" style="fill:#fff"></path><path d="M402.34,422l-.59-.82c.71-.53,1.42-1.06,2.12-1.6,2.83-2.18,5.64-4.38,8.41-6.64,1.59-1.28,3.14-2.58,4.64-3.92l.16-.13a3.89,3.89,0,0,1,.36-.34c.13-.11.26-.24.39-.36a43.25,43.25,0,0,0,8.63-10.46c.76-1.33,1.45-2.69,2.11-4.07.07-.13.13-.27.19-.4a.37.37,0,0,0,.05-.11c.07-.13.13-.27.19-.41l.15-.31c2-4.28,3.58-8.72,5.3-13.06.49-1.25,1-2.5,1.49-3.73l.09-.23c0-.09.07-.18.11-.27,2.21-5.49,4.48-11,6.54-16.5.07-.21.38-.06.3.14-1.34,3.7-2.6,7.44-3.88,11.17-.16.5-.34,1-.51,1.49-.34,1-.67,2-1,2.95q-1,2.94-2.11,5.85a143,143,0,0,1-6.75,16.25c-.2.39-.41.77-.62,1.16s-.26.48-.41.71-.3.55-.46.82a46.5,46.5,0,0,1-10.88,12l-.88.72c-.14.1-.27.22-.41.33l-.22.18-.29.23h0c-.07,0-.14.12-.22.17l-.77.61q-4.21,3.3-8.5,6.5C404.15,420.56,403.24,421.26,402.34,422Z" style="fill:#7505FF"></path><path d="M437.31,359.86c1.39-4.39,5.53-11.71,11.12-10.74a4.33,4.33,0,0,1,3.7,4.42c0,2.64-1.82,5.13-3.39,7.11-4.16,5.29-8.8,10.14-12.59,15.73,0,.05-.33.47-.41.6s-.24,0-.17-.14l.37-.54C436,370.88,435.65,365.07,437.31,359.86Z" style="fill:#7505FF"></path><path d="M436.16,376.42s0-.08,0-.12a48,48,0,0,1,2.38-4.89,93.14,93.14,0,0,1,6.29-9.39c.87-1.17,5.24-6.75,1.62-7.14-1.52-.16-3.08,1.14-4.12,2.09a16.92,16.92,0,0,0-3.93,5.43c-1.92,4.06-2.35,8.55-2.42,13,0,.21,0,.41,0,.61l-.08.18a.61.61,0,0,0-.05.12.11.11,0,0,0,0,.08.15.15,0,0,0,.2.12A.1.1,0,0,0,436.16,376.42Zm0-1.31a36.38,36.38,0,0,1,1.78-10.82,19.37,19.37,0,0,1,2.71-5.05,15.37,15.37,0,0,1,1.7-1.9,10.79,10.79,0,0,1,1.49-1.21c1.16-.78,2.73-1.2,3.33-.61.75.72.47,1.34-.09,2.57a10.81,10.81,0,0,1-.65,1.21,31.86,31.86,0,0,1-1.94,2.81c-1.13,1.51-2.24,3-3.3,4.59-.72,1.05-1.42,2.13-2.07,3.22a47.62,47.62,0,0,0-3,5.87C436.11,375.57,436.13,375.34,436.14,375.11Z" style="fill:#fff"></path><path d="M59.82,386.85c2.71,2.5,5.26,5.18,7.77,7.89,1.43,1.53,2.83,3.08,4.27,4.62s3.06,3.57,5.27,4.4h0a1.38,1.38,0,0,1,.27.16l0,0a.27.27,0,0,1-.34.34l-.15-.06h-.06a8.64,8.64,0,0,1-2-.47,48,48,0,0,1-5.37-1.6,46.26,46.26,0,0,1-10.24-5.12,39,39,0,0,1-7.66-6.79c-1.79-2.09-4.48-5.15-5-7.95-.45-2.54,2.82-2,4.33-1.59C54.39,381.75,57.24,384.48,59.82,386.85Z" style="fill:#7505FF"></path><path d="M51.58,385c-.78,1.09,2.17,4.39,3.41,5.87A37.73,37.73,0,0,0,61.64,397a48.39,48.39,0,0,0,14.61,7l.63.19h.06l.14.05a.28.28,0,0,0,.35-.34c-.42-.19-.82-.4-1.21-.62s-.72-.39-1.06-.6c-3.78-2.26-7.06-5.38-10.28-8.36C61.1,390.88,52.62,383.56,51.58,385Zm24.14,18.45c.52.29,1.06.55,1.59.8-.42-.14-.85-.27-1.27-.42a53.26,53.26,0,0,1-12.93-6.14,38.46,38.46,0,0,1-6.22-5.17,34.1,34.1,0,0,1-2.82-3.3c-.36-.48-2.74-3.37-2.11-3.94.44-.4,3.17,1.38,3.23,1.41.54.35,1.08.73,1.6,1.12,1.09.8,2.13,1.66,3.15,2.53,2.22,1.89,4.33,3.92,6.48,5.89A50.73,50.73,0,0,0,75.72,403.44Z" style="fill:#fff"></path><path d="M80.3,375.61c2.47,4.78,3,10.28,3.12,15.58,0,2.84-.06,5.68-.09,8.52a38.15,38.15,0,0,0,.27,7.6c0,.11,0,.22.07.33a9.58,9.58,0,0,0,.67,2,.17.17,0,0,1,0,.14l.12.19a0,0,0,0,1-.07.06l-.18-.16h0a.15.15,0,0,1-.16-.1l0-.08-.17-.16c-4.15-3.82-6.47-10.3-8-15.5s-2.31-10.73-.94-16c.35-1.33.94-4.5,2.55-4.95S79.78,374.6,80.3,375.61Z" style="fill:#7505FF"></path><path d="M78.11,378.71c-1.63.27-1.28,4.74-1.23,5.83a56.74,56.74,0,0,0,1.48,9.79,51.21,51.21,0,0,0,5.41,15h0l.06.19.17.16a.2.2,0,0,0,0,.08.16.16,0,0,0,.16.1l-.06-.25c-.18-.66-.33-1.32-.47-2,0-.11,0-.22-.07-.33a108.5,108.5,0,0,1-1.45-14.09,53.28,53.28,0,0,0-1.48-9.75C80.45,382.66,79.48,378.48,78.11,378.71Zm1.46,2.36c2.23,5.15,2.16,11.28,2.53,16.78a57.37,57.37,0,0,0,1.55,11,54.32,54.32,0,0,1-4.73-13.69,72.29,72.29,0,0,1-1.47-8.14,29.13,29.13,0,0,1-.25-4.48,11.7,11.7,0,0,1,.34-2.67C78.1,378.3,79.19,380.19,79.57,381.07Z" style="fill:#fff"></path><path d="M93.17,416.93a.29.29,0,0,1,0,.28h.11a.08.08,0,0,1,.09.08.08.08,0,0,1-.07.1c-6.39,1-13.5,1.3-19.79-.42A25.14,25.14,0,0,1,66,413.61c-1.56-1.06-4.71-3.18-4.89-5.29-.35-4.24,10.89.16,12.58.83,3.08,1.21,6.06,2.69,9.11,4,3.35,1.39,6.8,2.54,10.24,3.69A.26.26,0,0,1,93.17,416.93Z" style="fill:#7505FF"></path><path d="M93.16,416.92c-.34,0-.68-.06-1-.1a54.73,54.73,0,0,1-16.19-4.4,49.68,49.68,0,0,0-7.91-3c-.68-.17-3.18-1-2.78.65.21.83,4.33,3.2,5.45,3.73a34.11,34.11,0,0,0,8.07,2.54,56.82,56.82,0,0,0,14.15,1l.41,0a.08.08,0,0,0-.09-.08.33.33,0,0,1-.1,0A.3.3,0,0,0,93.16,416.92Zm-12-.49a40.36,40.36,0,0,1-8.16-2,28.71,28.71,0,0,1-3.06-1.35,18.17,18.17,0,0,1-2.26-1.34c-1.73-1.26-2.08-1.72-1.93-2.06s.46-.32,1.86-.09a14.36,14.36,0,0,1,2.65.77c1.21.46,2.42,1,3.61,1.49,2.4,1,4.79,2.1,7.25,2.95a42,42,0,0,0,10.94,2.28A65.32,65.32,0,0,1,81.15,416.43Z" style="fill:#fff"></path><path d="M92.5,398.56a16.06,16.06,0,0,1,3.3,6c1.46,4.35,2,8.95,3.12,13.39.18.66.36,1.32.57,2,0,.07.46.8.41.76s-.23-.23-.58-.6h0c-1.73-1.82-6.88-7.4-8.85-11.18a33.18,33.18,0,0,1-3-7.41c-.28-1.23-.8-4,.42-4.95S91.67,397.69,92.5,398.56Z" style="fill:#7505FF"></path><path d="M89.88,399.64c-1.71.71,1.83,8.23,2.27,9.22a46.47,46.47,0,0,0,6.31,10.21c.28.35.57.7.86,1l.57.6a8.52,8.52,0,0,0-.41-.76c0-.11-.06-.23-.1-.34-.16-.55-.32-1.1-.45-1.63-1.13-3-2.2-6-3.39-8.92a42.91,42.91,0,0,0-3-6.18C92.28,402.44,90.63,399.32,89.88,399.64Zm1.4,1.55c3.83,5.5,5.22,12.11,7.75,18.21l.12.3c-.1-.14-.22-.27-.32-.41a53.47,53.47,0,0,1-5.34-8.37,50.7,50.7,0,0,1-2.41-5.56A24.85,24.85,0,0,1,90,402.21c-.1-.47-.33-1.78,0-1.94S91,400.83,91.28,401.19Z" style="fill:#fff"></path><path d="M59.32,355.4c6,10.06,3,23,8.3,33.33l0,0c.16.32.33.63.51.94A.21.21,0,0,1,68,390a.16.16,0,0,1-.16-.08l-.12-.23c-4.78-4.44-8.65-10.47-11.5-16.3-2.47-5.07-4.1-10.77-3.25-16.44.2-1.39.52-4.18,2.21-4.71S58.58,354.15,59.32,355.4Z" style="fill:#7505FF"></path><path d="M57.25,359.09c-.71.23-.8,1.28-.88,1.85a17.68,17.68,0,0,0-.09,4.3,29.31,29.31,0,0,0,2.19,8.52,61.6,61.6,0,0,0,7.12,13.31c.67.92,1.38,1.81,2.13,2.66.09.11.19.21.28.31a.22.22,0,0,0,.16-.32c-.18-.3-.33-.59-.5-.9a.19.19,0,0,1,0-.09,35.72,35.72,0,0,1-3.05-6.28,84.78,84.78,0,0,1-2.69-10.54C61.58,370.52,59.67,358.29,57.25,359.09Zm1.59,2.06c1.23,2.63,1.62,5.62,2.25,8.43s1.24,5.7,1.91,8.53a41.88,41.88,0,0,0,2.17,6.58,31.2,31.2,0,0,0,2.73,5.1,44.24,44.24,0,0,1-3.32-4.62l0-.06a83.16,83.16,0,0,1-4.72-8.95.61.61,0,0,0,0-.12,36.72,36.72,0,0,1-2.87-8.42,21.61,21.61,0,0,1-.41-4.82c.09-1.83.35-3.3,1-3.33C57.9,359.46,58.48,360.37,58.84,361.15Z" style="fill:#fff"></path><path d="M60.07,376c1.65,2.91,3.37,5.79,5.1,8.66q1.22,2,2.45,4a.19.19,0,0,0,0,.09l.88,1.46c2.66,4.39,5.29,9,8.64,12.93a44.39,44.39,0,0,0,5.92,5.61c.23.17.45.35.67.53h0l.37.28.21.15c1.86,1.44,3.81,2.79,5.71,4.1,2.64,1.81,5.39,3.45,8.16,5a1,1,0,0,0,.24.15l.37.22.2.11.35.21q1.34.76,2.67,1.56l-.57.8a64.36,64.36,0,0,1-8.4-4.55.91.91,0,0,1-.16-.11c-.27-.15-.53-.32-.79-.49s-.64-.41-1-.63c-.76-.5-1.52-1-2.26-1.52a67.42,67.42,0,0,1-12.25-10.14l-.29-.33-.12-.14-.21-.24-.32-.38-.56-.7-.16-.22a102.57,102.57,0,0,1-7.48-12c-.42-.74-.83-1.48-1.24-2.22l-.69-1.24-1-1.9,0-.06c-1.59-3-3.11-6-4.72-8.95C59.76,376,60,375.89,60.07,376Z" style="fill:#7505FF"></path></g><g id="freepik--World--inject-350"><path d="M449.72,458.54H50.28A204.52,204.52,0,0,1,64.82,434c1.74-2.52,3.54-5,5.4-7.47.61-.82,1.24-1.64,1.87-2.45,1.26-1.62,2.55-3.21,3.85-4.79s2.65-3.15,4-4.69l2-2.3c1.37-1.52,2.78-3,4.2-4.51s2.87-3,4.34-4.4c.72-.74,1.47-1.45,2.22-2.17a219.56,219.56,0,0,1,26.4-21.63q5.14-3.62,10.52-6.91c1.19-.74,2.39-1.46,3.61-2.18q3.63-2.15,7.35-4.16c1-.55,2-1.09,3-1.61.56-.29,1.13-.59,1.69-.86s1.14-.59,1.72-.87l.92-.46a4.81,4.81,0,0,1,.46-.22l2.81-1.37h0c1.2-.57,2.4-1.13,3.62-1.68l2.93-1.3,2.94-1.25h0l.52-.22,2.45-1c1.31-.53,2.65-1.06,4-1.57l2-.75q7-2.61,14.34-4.77l1.83-.52.09,0,.54-.15q1.47-.42,2.94-.81l1.05-.28c1-.27,2-.53,3.05-.78,1.29-.33,2.58-.65,3.86-.93s2.37-.55,3.58-.81c.2,0,.4-.09.61-.12l2-.42.22,0,.41-.09.81-.15.09,0,.91-.17.12,0,1.74-.33.11,0,1.63-.29,4.36-.72h.09c1.36-.21,2.72-.41,4.08-.58A6,6,0,0,1,219,341c1.2-.18,2.42-.32,3.62-.46a2.28,2.28,0,0,1,.44-.05c1.14-.14,2.26-.26,3.41-.37.69-.08,1.4-.15,2.1-.21.48,0,1-.09,1.46-.12,1.08-.1,2.16-.18,3.26-.25a2.48,2.48,0,0,1,.39,0c1-.09,2.07-.16,3.11-.21,1.35-.07,2.68-.14,4-.18,1.07,0,2.14-.09,3.21-.1.59,0,1.18,0,1.77,0,1.39,0,2.78-.05,4.17-.05q9.11,0,18,.68l3.3.28,1.61.15,1.66.17c1.55.17,3.09.34,4.62.53,1.72.22,3.43.46,5.14.71l3.22.49c3.22.53,6.41,1.11,9.57,1.76,2.11.43,4.2.89,6.29,1.39q4.69,1.11,9.3,2.4c2,.56,4.1,1.18,6.12,1.8a226.24,226.24,0,0,1,45.88,20,221.05,221.05,0,0,1,42.66,32c1.15,1.12,2.29,2.24,3.43,3.38,2.27,2.28,4.47,4.6,6.63,7s4.26,4.79,6.3,7.25h0a208.14,208.14,0,0,1,26,39.65Z" style="fill:#455a64"></path><g style="opacity:0.2"><path d="M290.09,357.57c-1.66,2.94-4.33,3.52-7.43,3.73s-6-1.37-9.28.58-6.61,12.51-10.95,13.1-12-9.38-13.62-12.32,3.72-9.2,1.19-12.12-7-2.36-14-2.94c-.44,0-.91-.06-1.41-.07-7.57-.2-21.87,2.17-21.3,4.58.16.67,2,1,4.6,1.11,7,.42,19.51-.13,20,3.57.61,5.09-17.14,13.69-20.22,12.91s-7.24-5.86-11.77-6.45-8.27,2.93-11.12,3.32a7.31,7.31,0,0,1-3.47-.74c-2.05-.79-4.37-1.9-7.08-1.41-4.33.77-5.37,4.3-7.64,5.67s-7.64,1.37-8.25,4.49c-.3,1.57,1.38,2.79,3.38,3.86s4.35,2,5.28,3c1.86,2-2.27,8.6-.41,10s13.42-8.22,16.3-10.56,5.37-12.52,11.56-12.33,8.25,10.18,10.32,11.15,6.61-2.34,13.41-1,11.55,15.44,12.79,19.74,4.13,8.61,1.66,10.37-13.63-1.18-15.06-3.91,7.42-6.85,6.8-7.82-5.78-2.35-8.45-.82-3.92,4.72-6.82,5.5-10.53-7.43-12.58-5.08,2,9.78,4.12,11.55,9.7,2.73,10.31,4.68-5.15,6.25-12.17,5.87S196,413.3,193.3,415.45s-1.23,7.82-3.09,9.79-12,.58-16.92,5.65-7.23,12.72-12.18,17-7.21-1.17-13.82,4.89a18,18,0,0,0-4,5.74H71.83c0-.29,0-.56-.08-.84-1.22-11.75,3.1-24.06,11.77-34,0,0,1.24-6.46,2.47-10.56s27.86-20.53,31-25.23c1.29-2,1.73-5,2.19-8.33q5.14-3.62,10.52-6.91c1.19-.74,2.39-1.46,3.61-2.18q3.63-2.15,7.35-4.16c1-.55,2-1.09,3-1.61.56-.29,1.13-.59,1.69-.86s1.14-.59,1.72-.87l.92-.46a4.81,4.81,0,0,1,.46-.22c.93-.47,1.87-.92,2.81-1.37h0l.72-.34c1.92-.91,3.87-1.79,5.83-2.64l2.94-1.25h0l.52-.22,2.45-1c1.31-.53,2.65-1.06,4-1.57l2-.75q7-2.61,14.34-4.77l1.83-.52.09,0,.54-.15q1.47-.42,2.94-.81l1.05-.28c1-.27,2-.53,3.05-.78,1.29-.33,2.58-.65,3.86-.93s2.37-.55,3.58-.81c.2,0,.4-.09.61-.12l2-.42.22,0,1.22-.24.09,0,.91-.17.12,0,1.74-.33.11,0,1.63-.29,4.36-.72h.09c1.36-.21,2.72-.41,4.08-.58A6,6,0,0,1,219,341c1.2-.18,2.42-.32,3.62-.46a2.28,2.28,0,0,1,.44-.05c1.14-.14,2.26-.26,3.41-.37.69-.08,1.4-.15,2.1-.21.48,0,1-.09,1.46-.12,1.08-.1,2.16-.18,3.26-.25a2.48,2.48,0,0,1,.39,0c1-.09,2.07-.16,3.11-.21,1.35-.07,2.68-.14,4-.18,1.07,0,2.14-.09,3.21-.1.59,0,1.18,0,1.77,0,1.39,0,2.78-.05,4.17-.05q9.11,0,18,.68c.21.28.42.53.62.78a.58.58,0,0,0,.1.12,18.46,18.46,0,0,0,3.93,3.61,40.94,40.94,0,0,0,9.38,4.3C289.89,351.12,291.75,354.64,290.09,357.57Z"></path><path d="M295.46,359.14c-1.08,2.45,3.92,3.32,6.81,4.89s5.15,2.54,6.81,0-.62-5.48-2.89-6.07S296.49,356.79,295.46,359.14Z"></path><path d="M334.46,382c1.9,1.9,5.16,1.56,7.43,4.3s1.44,7.43,4.33,8.8,4.95,0,5.16-2-4.13-6.84-3.71-7.82,6,1.37,7.22,4.3-1.24,7,1.65,7.83,2.27-2.74,3.51-3.52,3.92-.4,3.71-2.74-3.51-7.43-6.19-9.19-4.74-3.72-9.28-4.7-8.88-.19-11.15,1.57S333.28,380.84,334.46,382Z"></path><path d="M423.74,418.87a3.46,3.46,0,0,1-1.16,2.06c-4.34,2.93-9.5-7.23-15.48-9.19s-8.67-9.19-9.9-7.62-.83,3.71-2.69,6.25-4.54,2-5.78,6.85,5.78,13.88,4.13,16.81-3.71,2-7,1.76-2.68,2.54-7,1.37-.62-6.26-7.43-12.32-9.08-7.23-7.63-10-.62-6.65,2.47-7,5.57,3.91,7.63,5.09,4.75-2.35,5-5.48-7.23-7.43-9.91-9.86-2.89-11.26-1.86-13,4.13-1.18,5-5.48c.48-2.52-3.74-6.75-7.31-9.8A218.67,218.67,0,0,1,423.74,418.87Z"></path><path d="M449.72,458.54H386.35c-1.65-3.19-4.07-7.18-4.22-10.21-.21-3.9,3.91-3.73,11.76-9.21s9.9-5.09,15.89-3.14A89,89,0,0,0,423,439.51c3.43.56,8.06,8.87,9.6,8.82,0,0,.07,0,.09,0,1.44-.4,1.66-2.94,2.27-6.65a8.21,8.21,0,0,1,2.57-4.2A203.43,203.43,0,0,1,449.72,458.54Z"></path></g><path d="M272.92,340c-1.41.14-2.8.31-4.19.47-4.16.5-8.26,1.13-12.33,1.87a208.62,208.62,0,0,0-21.78,5.18c-5.67,1.66-11.25,3.57-16.7,5.69a206.52,206.52,0,0,0-26.61,12.61q-8.46,4.79-16.37,10.3c-1.09.75-2.16,1.53-3.22,2.31a194,194,0,0,0-64.54,80.1H50.28A204.52,204.52,0,0,1,64.82,434c1.74-2.52,3.54-5,5.4-7.47.61-.82,1.24-1.64,1.87-2.45,1.26-1.62,2.55-3.21,3.85-4.79s2.65-3.15,4-4.69l2-2.3c1.37-1.52,2.78-3,4.2-4.51s2.87-3,4.34-4.4c.72-.74,1.47-1.45,2.22-2.17a219.56,219.56,0,0,1,26.4-21.63q5.14-3.62,10.52-6.91c1.19-.74,2.39-1.46,3.61-2.18q3.63-2.15,7.35-4.16c1-.55,2-1.09,3-1.61.56-.29,1.13-.59,1.69-.86s1.14-.59,1.72-.87l.92-.46a4.81,4.81,0,0,1,.46-.22l2.81-1.37h0l.72-.34,2.9-1.34q2.91-1.31,5.87-2.55h0l3-1.22c1.31-.53,2.65-1.06,4-1.57l2-.75q7-2.61,14.34-4.77l1.83-.52.09,0,.54-.15q1.47-.42,2.94-.81l1.05-.28c1-.27,2-.53,3.05-.78,1.29-.33,2.58-.65,3.86-.93s2.37-.55,3.58-.81c.2,0,.4-.09.61-.12l2-.42.22,0,1.22-.24.09,0,.91-.17.12,0,1.74-.33.11,0,1.63-.29,4.36-.72h.09c1.36-.21,2.72-.41,4.08-.58A6,6,0,0,1,219,341c1.2-.18,2.42-.32,3.62-.46a2.28,2.28,0,0,1,.44-.05c1.14-.14,2.26-.26,3.41-.37.69-.08,1.4-.15,2.1-.21.48,0,1-.09,1.46-.12,1.08-.1,2.16-.18,3.26-.25a2.48,2.48,0,0,1,.39,0c1-.09,2.07-.16,3.11-.21,1.35-.07,2.68-.14,4-.18,1.07,0,2.14-.09,3.21-.1.59,0,1.18,0,1.77,0,1.39,0,2.78-.05,4.17-.05q9.11,0,18,.68l3.3.28Z" style="opacity:0.1"></path><path d="M449.72,458.54H438.35c-1.81-3.46-3.74-6.87-5.75-10.21-1.49-2.53-3.05-5-4.67-7.47A211.78,211.78,0,0,0,414,422.17a217.25,217.25,0,0,0-16.84-18.05,220.64,220.64,0,0,0-26.84-21.88q-7.59-5.28-15.69-9.93a229,229,0,0,0-82-28.22q-7.55-1.08-15.26-1.67l-1-.07q-8.46-.62-17.11-.62A234.66,234.66,0,0,0,186,347.82l.54-.15q1.47-.42,2.94-.81l1.05-.28c1-.27,2-.53,3.05-.78,1.29-.33,2.58-.65,3.86-.93s2.37-.55,3.58-.81c.2,0,.4-.09.61-.12l2-.42.22,0,1.22-.24.09,0,.91-.17.12,0,1.74-.33.11,0,1.63-.29,4.36-.72h.09c1.36-.21,2.72-.41,4.08-.58A6,6,0,0,1,219,341c1.2-.18,2.42-.32,3.62-.46a2.28,2.28,0,0,1,.44-.05c1.14-.14,2.26-.26,3.41-.37.69-.08,1.4-.15,2.1-.21.48,0,1-.09,1.46-.12,1.08-.1,2.16-.18,3.26-.25a2.48,2.48,0,0,1,.39,0c1-.09,2.07-.16,3.11-.21,1.35-.07,2.68-.14,4-.18,1.07,0,2.14-.09,3.21-.1.59,0,1.18,0,1.77,0,1.39,0,2.78-.05,4.17-.05q9.11,0,18,.68l3.3.28,1.61.15,1.66.17c1.55.16,3.09.34,4.62.53,1.72.22,3.43.46,5.14.71l3.22.49c3.22.53,6.41,1.11,9.57,1.76,2.11.44,4.2.9,6.29,1.39q4.69,1.11,9.3,2.4c2,.56,4.1,1.18,6.12,1.8a226.24,226.24,0,0,1,45.88,20,221.05,221.05,0,0,1,42.66,32c1.15,1.12,2.29,2.24,3.43,3.38,2.27,2.28,4.47,4.6,6.63,7s4.26,4.79,6.3,7.25h0a208.14,208.14,0,0,1,26,39.65Z" style="fill:#fff;opacity:0.30000000000000004"></path></g><g id="freepik--Floor--inject-350"><polygon points="33.58 458.63 87.68 458.39 141.79 458.3 250 458.13 358.21 458.3 412.32 458.39 466.42 458.63 412.32 458.88 358.21 458.96 250 459.13 141.79 458.96 87.68 458.88 33.58 458.63" style="fill:#263238"></polygon></g><g id="freepik--Character--inject-350"><path d="M111.6,432.7c1-3.61,58.93-90.39,63.13-92.24.48-.24,29.76,18.1,29.76,18.1,1.26,1.48,54-13,54-13L262.83,410l-97.43,3.66s-12.69,8.5-24.34,15.51h0c-7.17,4.33-13.53,8-15.37,8.6C120.86,439.34,110.61,436.31,111.6,432.7Z" style="fill: rgb(255, 196, 192);"></path><path d="M125.65,437.8c1.85-.59,8.2-4.26,15.36-8.61,0,0,0,0,.05,0,11.64-7,24.33-15.51,24.33-15.51l21.69-.81,30.68-56.71c-7.37,1.75-12.87,2.87-13.27,2.4,0,0-29.27-18.35-29.75-18.1-4.2,1.85-62.17,88.62-63.14,92.24S120.86,439.34,125.65,437.8Z" style="fill:#fff"></path><path d="M111,432.85c1-3.71,59.28-90.46,63.59-92.36,1.63-.73,15.88,6.95,29.87,18.07l-37.62,55.88s-36.45,22.15-41.41,23.73S110,436.56,111,432.85Z" style="fill:#7505FF"></path><path d="M115.33,433.93c10.13-14.3,49.61-72.93,58.53-87.84.07-.12,0-.17-.09-.06-10.35,14-49.35,72.91-58.68,87.75C114.9,434.09,115.12,434.24,115.33,433.93Z" style="fill:#263238"></path><path d="M132.33,434.69a14.08,14.08,0,0,0,2.29-11.09c-.76-3.13-2.49-6.54-5.58-8.46-.09-.06-.19.1-.11.17,5.13,4.66,6.65,13.19,3.22,19.25A.11.11,0,0,0,132.33,434.69Z" style="fill:#263238"></path><path d="M162.34,418c4-5.76,6.47-13.89,4.14-20.7-.09-.27-.46-.13-.49.1a96.74,96.74,0,0,1-4.43,20.22A.44.44,0,0,0,162.34,418Z" style="fill:#263238"></path><path d="M157.58,421.34c4-5.77,6.46-13.89,4.13-20.71-.09-.26-.46-.13-.49.1A96.69,96.69,0,0,1,156.79,421,.44.44,0,0,0,157.58,421.34Z" style="fill:#263238"></path><path d="M152.81,424.66c4-5.77,6.46-13.9,4.13-20.71-.09-.26-.46-.13-.49.1A97,97,0,0,1,152,424.28.44.44,0,0,0,152.81,424.66Z" style="fill:#263238"></path><path d="M148,428c4-5.76,6.46-13.89,4.13-20.7-.09-.27-.46-.14-.49.1a96.74,96.74,0,0,1-4.43,20.22A.44.44,0,0,0,148,428Z" style="fill:#263238"></path><path d="M185.18,359.07c4.37-6.54-5.79-13.34-10.17-6.78S180.81,365.63,185.18,359.07Z" style="fill:#263238"></path><path d="M173.65,434.74c4.42-1.3,4.53-6.62,3.21-10.14a36.72,36.72,0,0,0-11.33-15.28.19.19,0,0,0-.29.07.85.85,0,0,0-1.17.73c.08,6.07-.58,12.57,1.36,18.43C166.57,432,169.47,436,173.65,434.74Zm-7.57-15.44c-.12-3-.08-6-.31-8.94a110,110,0,0,1,6.42,9.07,38.63,38.63,0,0,1,2.5,4.77c1.08,2.55,2.1,11.53-4.62,7.86C166.37,430,166.21,422.85,166.08,419.3Z" style="fill:#263238"></path><path d="M173.08,393.41c-4.18,4.55-6.25,10.74-8.82,16.24a.86.86,0,0,0,.77,1.15.19.19,0,0,0,.24.18,36.76,36.76,0,0,0,16.61-9.27c2.65-2.67,4.74-7.56,1.24-10.56C179.82,388.3,175.53,390.76,173.08,393.41Zm5.68-1.29c7.63-.58,3,7.18,1,9.07a38.79,38.79,0,0,1-4.23,3.31c-3.05,2.14-6.35,3.81-9.58,5.63,1.42-2.62,2.62-5.34,4-8C171.45,398.93,174.55,392.44,178.76,392.12Z" style="fill:#263238"></path><path d="M242.33,331.82s82.12-37,118.65-36.36c43.46.78,76.92,52.58,23.41,89.45-47.3,32.6-195.76,29.29-195.76,29.29l35.08-62.09s41.1-15.65,94.82-17l-75,14.77Z" style="fill:#263238"></path><path d="M243.77,344.25c6.43-1.6,13-2.65,19.5-3.79s13.19-2.15,19.8-3.1a395.61,395.61,0,0,1,39.78-3.79c1.25-.05,2.5-.07,3.75-.1a8.18,8.18,0,0,1,.8-.25c.63-.19,1.26-.39,1.9-.55,1.18-.3,2.38-.55,3.58-.81,2.49-.53,5-.94,7.47-1.56.15,0,.23.19.08.23-2.49.71-4.92,1.58-7.4,2.28l-2.16.59c4.89,0,9.78.06,14.68.21.15,0,.17.24,0,.24-6.64,0-13.32.35-19.94.85s-13.16,1-19.71,1.8c-13.26,1.55-26.48,3.52-39.65,5.69-7.39,1.22-14.79,2.58-22.24,3.33C243.3,345.59,243,344.43,243.77,344.25Z" style="fill:#37474f"></path><path d="M203.74,411.47c2.16-4,3.95-8.13,5.9-12.18s3.9-8.13,5.86-12.2c3.91-8.1,18.05-35.42,19.5-37.36.09-.12.3,0,.26.14C234.64,352,225.87,370,223.84,374c-4.05,8.06-8.34,16-12.55,23.94-1.21,2.28-2.46,4.53-3.69,6.79s-2.53,4.5-3.64,6.82C203.89,411.73,203.67,411.61,203.74,411.47Z" style="fill:#37474f"></path><path d="M397,434.24c-1.05-3.6-61-89-65.23-90.79-.48-.22-29.34,18.78-29.34,18.78-1.21,1.51-54.28-11.72-54.28-11.72L245.26,415l97.5,1.45s12.88,8.21,24.68,14.94c0,0,0,0,.05,0,7.26,4.17,13.7,7.7,15.55,8.25C387.87,441.08,398.05,437.82,397,434.24Z" style="fill: rgb(255, 196, 192);"></path><path d="M383,439.65c-1.86-.55-8.29-4.07-15.55-8.25,0,0,0,0-.05,0-11.8-6.74-24.68-15-24.68-15l-21.7-.31-32-56c7.4,1.59,12.93,2.58,13.32,2.1,0,0,28.84-19,29.33-18.77,4.24,1.75,64.17,87.18,65.23,90.78S387.87,441.09,383,439.65Z" style="fill:#fff"></path><path d="M397.55,434.37c-1.11-3.69-61.33-89.08-65.68-90.89-1.65-.69-15.72,7.32-29.46,18.75l38.9,55s36.94,21.31,41.93,22.78S398.65,438.06,397.55,434.37Z" style="fill:#7505FF"></path><path d="M393.27,435.55c-10.45-14.06-51.25-71.78-60.51-86.48-.08-.12,0-.18.09-.07,10.66,13.72,51,71.77,60.65,86.39C393.71,435.7,393.49,435.85,393.27,435.55Z" style="fill:#263238"></path><path d="M376.29,436.69a14.06,14.06,0,0,1-2.54-11c.69-3.14,2.34-6.59,5.38-8.59.09-.05.2.1.13.18-5,4.77-6.36,13.33-2.79,19.32A.11.11,0,1,1,376.29,436.69Z" style="fill:#263238"></path><path d="M345.91,420.72c-4.12-5.68-6.79-13.74-4.61-20.61.08-.26.46-.14.49.09a97.66,97.66,0,0,0,4.89,20.12A.44.44,0,0,1,345.91,420.72Z" style="fill:#263238"></path><path d="M350.75,423.92c-4.12-5.67-6.78-13.74-4.61-20.6.09-.27.46-.14.5.09a96.39,96.39,0,0,0,4.89,20.12A.44.44,0,0,1,350.75,423.92Z" style="fill:#263238"></path><path d="M355.59,427.13c-4.12-5.67-6.78-13.74-4.6-20.61.08-.26.46-.14.49.09a96.87,96.87,0,0,0,4.89,20.12A.44.44,0,0,1,355.59,427.13Z" style="fill:#263238"></path><path d="M360.44,430.34c-4.12-5.67-6.78-13.74-4.61-20.61.08-.26.46-.14.49.09a97.66,97.66,0,0,0,4.89,20.12A.44.44,0,0,1,360.44,430.34Z" style="fill:#263238"></path><path d="M321.73,362.3c-4.51-6.44,5.49-13.47,10-7S326.26,368.75,321.73,362.3Z" style="fill:#263238"></path><path d="M343.06,431.31c1.81-5.9,1-12.38.94-18.45a.86.86,0,0,0-1.19-.71.18.18,0,0,0-.29-.06,36.86,36.86,0,0,0-11,15.54c-1.23,3.55-1,8.86,3.45,10.06C339.19,438.83,342,434.76,343.06,431.31Zm-4.56,3.61c-6.63,3.83-5.81-5.17-4.8-7.75a40.75,40.75,0,0,1,2.39-4.82,110.71,110.71,0,0,1,6.21-9.21c-.15,3-.05,5.95-.1,8.93C342.15,425.63,342.16,432.82,338.5,434.92Z" style="fill:#263238"></path><path d="M324.52,394.32c-3.42,3.09-1.22,7.93,1.49,10.53a36.74,36.74,0,0,0,16.82,8.89.18.18,0,0,0,.23-.18.86.86,0,0,0,.74-1.17c-2.7-5.44-4.91-11.59-9.19-16C332.11,393.76,327.76,391.4,324.52,394.32ZM338,405c1.4,2.64,2.65,5.34,4.14,7.93-3.28-1.75-6.61-3.34-9.71-5.41a38.64,38.64,0,0,1-4.31-3.22c-2.07-1.84-6.88-9.49.77-9.08C333.13,395.42,336.37,401.83,338,405Z" style="fill:#263238"></path><path d="M245.89,330.62s-82.26-25.89-126.38-21.18C76.29,314.05,57.91,368,99.63,397.8c45.55,32.6,218.7,23.54,218.7,23.54l-36.12-66.6S223.47,340.15,169.73,340l75.35,13.05Z" style="fill:#263238"></path><path d="M284.62,359a1.21,1.21,0,0,1-.07-.34l-.06-.27c0-.21-.09-.43-.14-.64-.11-.44-.25-.86-.4-1.29s-.32-.84-.5-1.26a9.25,9.25,0,0,0-.68-1.18s-.06-.05-.1-.08l-.06-.05-.1,0-.09,0c-6.47-1.45-50.47-9.37-57-10.36s-13.23-1.85-19.86-2.65A396.44,396.44,0,0,0,165.68,338c-1.25,0-2.5,0-3.75,0-.26-.1-.54-.15-.81-.23-.63-.18-1.26-.36-1.9-.51-1.19-.27-2.4-.49-3.6-.72-2.51-.47-5-.83-7.51-1.39-.15,0-.22.19-.07.23,2.5.65,5,1.47,7.45,2.11.72.19,1.45.37,2.17.54-4.89.08-9.78.28-14.67.55-.15,0-.16.24,0,.24,6.65-.15,13.33,0,20,.39s13.18.74,19.75,1.35c13.29,1.25,26.55,2.92,39.76,4.79,7.42,1,52.28,9.25,59.74,9.84h.09a5.27,5.27,0,0,0,.19.51c.19.42.38.83.59,1.23s.4.78.63,1.15l.34.56.18.27a1.81,1.81,0,0,1,.19.29C284.44,359.3,284.7,359.2,284.62,359Z" style="fill:#37474f"></path><path d="M304.6,416.88c-2.25-3.9-4.13-8-6.17-12.05s-4.09-8-6.15-12.05c-4.09-8-18.85-35-20.34-36.91-.09-.12-.29,0-.25.15.67,2.07,9.84,19.91,12,23.9,4.23,8,8.7,15.78,13.1,23.65,1.26,2.25,2.56,4.47,3.83,6.7s2.64,4.44,3.81,6.73C304.46,417.14,304.67,417,304.6,416.88Z" style="fill:#37474f"></path><path d="M207.78,223.32a.78.78,0,0,0,.64.81c.87,0,1.92,0,3.09.05,2.49-7.85,5.26-14.14,4.56-11.7a42.66,42.66,0,0,0-1.52,11.74h6.11c1.91-13.71,4.63-23.94,4.55-20.82-.33,12.57.51,16.56,1.47,20.82,14.73-.06,34-.35,48-.88,1.35-7.59,2.47-15.79,2.73-15.24,2,4.14,2.79,10.27,3,15,4.44-.2,8-.45,10.15-.72,0,0,.81-6.37.89-8.45a45.93,45.93,0,0,0-2.12-15.72c-1.66-5.18-4.38-9.69-7-14.32l-.06-.11,0,0a46,46,0,0,1-4.06-9.6.15.15,0,0,1,0-.07,45.93,45.93,0,0,1-1.41-7.46c-1-9.23-6.13-17-14.35-19-12-11.4-32.26-5.91-36.45,8.79v0c-1.38,5.44-2.54,12.47-3.66,17.91,0,0,0,0,0,0s0,0,0,.06h0a55.22,55.22,0,0,1-1.6,6.3C217.15,190.64,208.48,196.6,207.78,223.32Z" style="fill:#263238"></path><path d="M266.07,150A17.08,17.08,0,0,1,276,163.58c.62,3.92,1,7.75,2.55,11.4a40,40,0,0,0,6.5,9.81c3.94,4.8,6.75,9.64,7.57,16.25s.81,14.68-1.09,21.08c0,0-.06,0,0,0,1.5-6.46,1.23-15.3-.07-21.92-1.42-7.28-5.47-11.69-9.63-17.06a31.17,31.17,0,0,1-6.36-14.67c-.52-3.32-.6-6.8-2-9.88-1.63-3.68-4.71-5.92-7.75-7.88C265.3,150.42,265.65,149.78,266.07,150Z" style="fill:#263238"></path><path d="M212.11,191.6c3.58-5.45,7.34-10.13,9.32-16.77,1.8-6.05,2.72-12.38,4.56-18.42a.07.07,0,1,1,.14,0c-2.78,10.71-3,21.37-9.06,30.56-3.28,5-6.57,9.64-8.64,15.53a55.19,55.19,0,0,0-2.91,19.24c0,.24-.27.24-.3,0A45.36,45.36,0,0,1,212.11,191.6Z" style="fill:#263238"></path><path d="M253.14,225.12c12.17,8.94,64.45,23.7,82.11,19.42,6-1.47,35.92-11.41,51.57-23.8,7.06-5.6-11.61-45.68-18.28-41.29-9.36,6.16-47.88,28.41-49.48,28.68-11.32,1.9-28.18,1.72-58.12,1.72C242.68,209.85,243.76,218.23,253.14,225.12Z" style="fill: rgb(255, 196, 192);"></path><path d="M367.91,230.37c3-.84,15.5-4,23.48-14.77.2-8.26,1.71-25.74,2.3-30.08-.16-5,2.3-15.63,2.78-15.56.91.12,4.09.57,8,.81,5.17.31,11.59.26,15.68-1.35,2.23-.88,3.75-2.21,4-4.19.51-3.55-7.23-5-16.24-7.51-12.28-3.44-27.55-7-33.22-3.13-8.39,5.71-14.23,19.8-16,24-3.91,9.3-12.38,14.78-12.38,14.78C349.54,217.9,365.79,231,367.91,230.37Z" style="fill: rgb(255, 196, 192);"></path><path d="M432.32,169.06s-17.67.49-36,.19-57.72,7.07-58.34,8.46,40.25,2,58.21.12,36-4.92,36-4.92Z" style="fill:#455a64"></path><polygon points="432.7 168.84 420.51 168.63 421.05 175.2 432.9 173.31 432.7 168.84" style="fill:#dbdbdb"></polygon><path d="M432.7,168.85a9.55,9.55,0,0,1,8.68-1.27c4.68,1.4,7.37-.35,7.37-.35s-6.51,9.74-15.85,6.08Z" style="fill:#263238"></path><path d="M449.17,167c-.67-.16-3.19,1.46-5.77.89-2.43-.54-3.73,6.78-.66,5.19C446.23,171.3,450.4,167.32,449.17,167Z" style="fill:#7505FF"></path><path d="M386.48,220.29c2.92-2.19,21-21.1,22.74-26.78s16.24-15.84,6.8-18.2-19.69,14.13-21.72,12.52a3.41,3.41,0,0,1-.61-2.31C393.1,189.86,386.67,212,386.48,220.29Z" style="fill: rgb(255, 196, 192);"></path><path d="M351.49,239.1a166.57,166.57,0,0,1-16.24,5.44c-17.66,4.28-69.94-10.48-82.11-19.42-6.95-5.1-9.34-11-2.69-13.75Z" style="opacity:0.1"></path><path d="M271.08,215.52c38.42,16.83,82.48,50.62,89,74.8,6.41,23.89-7.66,24.82-10.1,24.67-25.85-1.55-71.2-61-88.58-85.48C244.12,205.21,261.58,211.35,271.08,215.52Z" style="fill: rgb(255, 196, 192);"></path><path d="M353,314.67A10.43,10.43,0,0,1,350,315c-25.85-1.56-71.2-61-88.58-85.48-6.17-8.68-7.9-13.48-7.15-15.86Z" style="opacity:0.1"></path><path d="M157.48,127.55l-10.91,50c-.17,1.54-1.36,2.27-2.64,1.64L121,167.82a4.17,4.17,0,0,1-2-3.95l10.91-50c.17-1.55,1.36-2.28,2.64-1.64l22.94,11.41A4.14,4.14,0,0,1,157.48,127.55Z" style="fill:#37474f"></path><path d="M154.77,126.18l-10.91,50c-.17,1.54-1.36,2.27-2.64,1.64l-22.94-11.41a4.17,4.17,0,0,1-2-3.95l10.91-50c.17-1.55,1.35-2.28,2.64-1.64l22.94,11.41A4.16,4.16,0,0,1,154.77,126.18Z" style="fill:#455a64"></path><path d="M147.47,125.08a2.18,2.18,0,1,0,2.89-1A2.17,2.17,0,0,0,147.47,125.08Z" style="fill:#263238"></path><path d="M233.89,227.08c-29.54,17.08-79.15,28.45-91.43,23.17C136.57,247.72,91.54,195,99,178.78c2.66-5.78,39.4-4.6,42.31,1.54,5.21,11,24.85,30.61,26.09,32s36.07-1.72,60.62-2.73C257,208.41,245.65,220.27,233.89,227.08Z" style="fill: rgb(255, 196, 192);"></path><path d="M103.51,151.08c5.53-11.88,8.77-14.08,8.11-26.59-.43-8.21,4.63-12,9-4.66,7.15,12,3.23,28.85.2,34.29Z" style="fill: rgb(255, 196, 192);"></path><path d="M99,188.63s-3.35-16.78,2.06-31.7c3.31-9.12,12.41-28.31,40.83-33.95,6.74-1.34,17.29,1.53,7.07,7.71-7.25,4.4-13.18,5-16.93,8.31,0,0,13,5.25,14.06,12.05a126.27,126.27,0,0,1,1.55,18,27.7,27.7,0,0,1-3.34.59s.81,6.4-5.28,14.11Z" style="fill: rgb(255, 196, 192);"></path><path d="M105.5,148.68c4.42-2.51,13.89-7.68,23.1-9.21,10.23-1.7,30.4-2.22,31.58,5.35.87,5.55-6.82,6.42-6.82,6.42s8.38,1.54,8.07,6.73c-.29,4.72-6.28,5-6.28,5s4.93,1.81,3.77,6.31c-1.38,5.4-11.47.72-17.61,5C139.93,175.26,105.5,148.68,105.5,148.68Z" style="fill: rgb(255, 196, 192);"></path><path d="M128.59,150.58c4.55-1.68,15.86-2.84,24.64.49.2.08.25.27.05.24a101.72,101.72,0,0,0-24.67-.63C128.55,150.69,128.54,150.6,128.59,150.58Z" style="fill:#263238"></path><path d="M130.61,160.86c4.07-1,15.78-1.72,24.56,2,.2.08.24.28,0,.24a109,109,0,0,0-24.59-2.1C130.56,161,130.56,160.88,130.61,160.86Z" style="fill:#263238"></path><path d="M233.89,227.08c-19.27,11.15-47.1,19.87-67.51,23.11,22.24-11.77,60.83-32.17,75.33-39.69C252,213.37,243.07,221.76,233.89,227.08Z" style="opacity:0.1"></path><path d="M247.14,222.48c-2.71,14.86-39.95,67.25-55.73,76.26-5.4,3.08-33.95,16.38-53.83,18.11-9,.79-22.93-41.18-15.06-42.57,11-1.94,49.35-11.36,50.7-12.27,9.54-6.38,30.63-27.94,56-47.12C243.81,203.88,249.23,211,247.14,222.48Z" style="fill: rgb(255, 196, 192);"></path><path d="M117,284.16S88.5,295.47,87.3,296.5s.22,2.8,1.27,4.22a16.53,16.53,0,0,0,2.62,1.84c4.24,2.73,11.63,7.71,7.29,12.38-5.72,6.14-22.34-5-24.66-7.19A9.81,9.81,0,0,1,71.91,304c-1.56-4.81-2.25-12.77,1.84-17.33,5.6-6.25,14-9.92,21.15-13.62Z" style="fill: rgb(255, 196, 192);"></path><path d="M117,284.16S88.5,295.47,87.3,296.5s.22,2.8,1.27,4.22a16.53,16.53,0,0,0,2.62,1.84c-6.86.55-14.44,1.12-19.28,1.46-1.56-4.81-2.25-12.77,1.84-17.33,5.6-6.25,14-9.92,21.15-13.62Z" style="fill:#263238"></path><path d="M144.61,316.29c-1.8.08-17,3.09-28.4,5.38-6.86-5.84-21.88-15.86-25.85-18.54-3.9-3.72-14.37-9.47-14.67-9-.55.83-2.5,3.74-5.14,7.09-3.5,4.42-8.2,9.62-12.48,11.77-2.34,1.18-4.52,1.45-6.34.25-3.26-2.17,1.18-9.51,5.69-18.67,6.11-12.47,14.31-27.47,21.56-29.28,10.73-2.67,26.31,3.21,31.15,4.43s25.58,2.48,25.58,2.48C153.32,292.57,147,316.18,144.61,316.29Z" style="fill: rgb(255, 196, 192);"></path><path d="M101.82,262s4.87-9.08-1.59-11.89-9.79,6.92-9.79,6.92Z" style="fill: rgb(255, 196, 192);"></path><rect x="75.61" y="256.17" width="12.42" height="72.42" transform="translate(39.94 593.08) rotate(-156.44)" style="fill:#7505FF"></rect><rect x="84.61" y="265" width="0.81" height="60.95" transform="translate(44.81 600.31) rotate(-156.44)" style="opacity:0.1"></rect><rect x="82.06" y="263.89" width="0.81" height="60.95" transform="translate(40.38 597.16) rotate(-156.44)" style="opacity:0.1"></rect><rect x="79.51" y="262.78" width="0.81" height="60.95" transform="translate(35.94 594.01) rotate(-156.44)" style="opacity:0.1"></rect><rect x="76.96" y="261.67" width="0.81" height="60.95" transform="translate(31.5 590.86) rotate(-156.44)" style="opacity:0.1"></rect><rect x="88.62" y="258.71" width="14.51" height="2.88" transform="translate(79.76 536.93) rotate(-156.44)" style="fill:#37474f"></rect><rect x="87.35" y="261.62" width="14.51" height="2.88" transform="translate(76.16 542.01) rotate(-156.44)" style="fill:#37474f"></rect><path d="M61.64,323.08l.72,10.06.22,3.32,2.61-2.08,7.86-6.33-.44-2.15-1.84,1.16-.44-2.16-1.84,1.16-.41-2.14-1.88,1.15-.4-2.15s-1.84,1.14-1.88,1.15l-.4-2.14S61.68,323.07,61.64,323.08Z" style="fill:#ebebeb"></path><polygon points="62.36 333.14 62.58 336.46 65.19 334.38 62.36 333.14" style="fill:#37474f"></polygon><path d="M116.21,321.67c-3.9.8-7.36,1.54-9.7,2.11-9.22,2.26-15.07.52-20.92-2.22s-24.67,1.7-19.73-7.68,25.78-5.75,25.94-8.58c0-.53-.52-1.3-1.44-2.17C94.33,305.81,109.35,315.83,116.21,321.67Z" style="fill: rgb(255, 196, 192);"></path><path d="M87.69,301c-.22-.12-.27,0,0,.21.69.57,3.71,3.13,3.21,3.89-.86,1.32-10.49,1.67-14.51,2.53-.21,0-.17.34,0,.29a59.44,59.44,0,0,1,6.32-.54c2-.14,8.07-.13,9.16-1.79C92.58,304.43,88.56,301.42,87.69,301Z" style="fill:#263238"></path><path d="M247.14,222.48c-2.7,14.86-39.95,67.25-55.73,76.26a185.35,185.35,0,0,1-21.27,9.48L245.36,211C247.52,213.19,248.06,217.42,247.14,222.48Z" style="opacity:0.1"></path><path d="M288.75,280.55l6.13,39.82s-35.49,10.25-47.4,10.25c-18.4,0-47.1-10.25-47.1-10.25s2.66-15,6.73-37.3c0,0-4.74-13.21-1.06-23.06,6.17-16.49,16.42-33.31,24.8-42.61,12-13.33,24.32-10,33.52-.82,2.32,2.31,23.05,30.94,26.09,44.78C293.11,273.57,288.75,280.55,288.75,280.55Z" style="fill: rgb(255, 196, 192);"></path><path d="M288.76,280.54l2.56,16H204.49c.52-4.09,1.73-8.61,2.62-13.48,0,0-4.73-13.21-1.06-23.05,6.17-16.5,16.41-33.32,24.81-42.62,12-13.32,24.31-10,33.51-.82,2.33,2.3,23.05,30.94,26.09,44.78C293.11,273.57,288.76,280.54,288.76,280.54Z" style="fill:#7505FF"></path><path d="M254.75,279.06a93.6,93.6,0,0,0-15.47,1.42c-2.54.49-5.05,1.11-7.56,1.78-1.26.34-2.51.63-3.77.91a14.63,14.63,0,0,1-4,.48c-.12,0-.14.19,0,.2a23.86,23.86,0,0,0,3.78.27,24.15,24.15,0,0,0,3.67-.43c2.58-.47,5.14-1.07,7.72-1.57,5.21-1,10.41-2,15.66-2.57C255,279.52,255,279.06,254.75,279.06Z" style="fill:#263238"></path><path d="M266.92,285.34a101.73,101.73,0,0,0-12.63-1.86c-2.13-.16-4.25-.19-6.39-.15-1,0-2,.05-3.05.1s-2.24.29-3.36.33c-.12,0-.14.2,0,.2,1.06,0,2.12.2,3.17.27l3.18.19c2.12.14,4.23.3,6.36.42,4.25.23,8.47.5,12.71.89C267.12,285.76,267.13,285.39,266.92,285.34Z" style="fill:#263238"></path><path d="M248.68,305.41a4.69,4.69,0,0,0-1.35,1.78,8.71,8.71,0,0,0-.7,2.09,11.29,11.29,0,0,0-.19,2.19,10.15,10.15,0,0,0,.21,2.16c.15.68.49,1.27.94,1.29s.83-.45,1-1.15a6.83,6.83,0,0,0,.06-2.17,4.7,4.7,0,0,0-.72-2.13,4.34,4.34,0,0,1,1.18,2,6.2,6.2,0,0,1,.23,2.4,2.75,2.75,0,0,1-.43,1.26,1.51,1.51,0,0,1-1.36.69,1.7,1.7,0,0,1-1.32-.77,3.85,3.85,0,0,1-.52-1.21,8.72,8.72,0,0,1-.21-2.42,8.45,8.45,0,0,1,.34-2.38,7.29,7.29,0,0,1,1.05-2.15A4.14,4.14,0,0,1,248.68,305.41Z" style="fill:#263238"></path><path d="M256.16,216c-.85,2.43-8.67,9.84-16.26,8.38-3.9-.75-1.81-14.51-1.81-14.51l0-1-.47-14.58,21.06-8.37S256.4,215.32,256.16,216Z" style="fill: rgb(255, 196, 192);"></path><path d="M258.64,185.9s-.51,6.67-1.07,13.73c-6.28,7.65-15,9.32-19.49,10.09l-.5-15.46Z" style="fill:#263238"></path><path d="M221.86,173.7c-1.3,25.56,13.65,29.19,19.09,29.45,4.93.24,21.76.42,25.66-24.88s-7.41-34-18.67-35.1S223.16,148.14,221.86,173.7Z" style="fill: rgb(255, 196, 192);"></path><path d="M265.19,180.23c-5.42-.32-5.06-12.75-5.06-12.75s-3.12-1.37-6.61-7.79c0,0,2.27,5.52,5.76,7.91.58.41-17.95-2.37-19-16.73,0,0-4.87,12-18,15.65-.42.11,1.86-12.77,4.74-15.65a27.09,27.09,0,0,1,5.55-4.33,26.75,26.75,0,0,1,19.79-4.11c11.36,2.22,18.26,14.6,18.89,19.57C272.45,171.78,267.77,180.39,265.19,180.23Z" style="fill:#263238"></path><path d="M258.67,167.88c-10.14-.93-17.91-7.81-18.25-18.22a.23.23,0,0,0-.45,0c-1.89,10.46,9.12,18.73,18.78,18.44C259,168.06,258.91,167.9,258.67,167.88Z" style="fill:#263238"></path><path d="M240.43,150.45a.05.05,0,0,0-.1,0c-2.87,5.21-6,14.54-13.53,13.79a.16.16,0,0,0-.05.31C234,165.89,239.44,156.44,240.43,150.45Z" style="fill:#263238"></path><path d="M229.83,170.22c.61-.07,1.16-.23,1.76-.35a2.9,2.9,0,0,0,1.72-.7.93.93,0,0,0,0-1.12,2.28,2.28,0,0,0-2.25-.56,3.36,3.36,0,0,0-2.11,1.16A1,1,0,0,0,229.83,170.22Z" style="fill:#263238"></path><path d="M247.56,170.41a16.86,16.86,0,0,1-1.74-.39,2.89,2.89,0,0,1-1.71-.74.92.92,0,0,1,0-1.12,2.26,2.26,0,0,1,2.25-.5,3.28,3.28,0,0,1,2.09,1.21A1,1,0,0,1,247.56,170.41Z" style="fill:#263238"></path><path d="M243.52,177.93c0-.07.14.08.13.16-.11,1.75,0,3.79,1.62,4.43,0,0,0,.11,0,.1C243.32,182.27,243.13,179.57,243.52,177.93Z" style="fill:#263238"></path><path d="M245.16,176.14c2.84-.11,2.86,5.57.23,5.68S242.78,176.24,245.16,176.14Z" style="fill:#263238"></path><path d="M246.28,176.44c.49.32,1,.89,1.58.94s1.22-.53,1.67-1.1c0-.06.09,0,.09.06,0,1.09-.39,2.21-1.56,2.38s-1.83-.81-2.11-1.91C245.9,176.61,246.08,176.31,246.28,176.44Z" style="fill:#263238"></path><path d="M232.91,177.73c0-.07-.14.08-.14.15.08,1.76-.13,3.79-1.72,4.4,0,0,0,.1,0,.09C233,182.08,233.26,179.38,232.91,177.73Z" style="fill:#263238"></path><path d="M231.31,175.91c-2.83-.19-3,5.5-.36,5.67S233.69,176.06,231.31,175.91Z" style="fill:#263238"></path><path d="M230.12,176.25c-.46.29-.92.82-1.46.84s-1.06-.6-1.44-1.2c0-.06-.09,0-.09.06-.06,1.08.27,2.22,1.3,2.46s1.68-.7,2-1.77C230.45,176.44,230.3,176.13,230.12,176.25Z" style="fill:#263238"></path><path d="M242.64,190.91c-.41.43-.8,1-1.43,1.11a4.74,4.74,0,0,1-1.92-.35.06.06,0,0,0-.07.09,2.39,2.39,0,0,0,2.28.85,1.89,1.89,0,0,0,1.31-1.63C242.83,190.88,242.69,190.85,242.64,190.91Z" style="fill:#263238"></path><path d="M235.32,184.49s-.38,2.62-.39,3.86c0,.12.3.18.72.21h0a5.88,5.88,0,0,0,5.74-2.16c.09-.12-.07-.25-.18-.17a8.88,8.88,0,0,1-5.4,1.5c-.08-.35.81-4.48.61-4.5a11,11,0,0,0-2.82.62c.64-5.5,2.16-10.84,2.72-16.33a.17.17,0,0,0-.32-.08c-2,5.49-2.87,11.8-3.68,17.46C232.26,185.6,234.83,184.69,235.32,184.49Z" style="fill:#263238"></path><path d="M236.49,187.9a6.32,6.32,0,0,0,2.44,2.09,2.82,2.82,0,0,0,1.73.2c1.27-.27,1.36-1.42,1.18-2.41a7.05,7.05,0,0,0-.49-1.54A8.27,8.27,0,0,1,236.49,187.9Z" style="fill:#263238"></path><path d="M238.93,190a2.82,2.82,0,0,0,1.73.2c1.27-.27,1.36-1.42,1.18-2.41A2.94,2.94,0,0,0,238.93,190Z" style="fill:#ff9abb"></path><path d="M245.35,186.37a8.35,8.35,0,0,1-6.87-9.59h0a8.34,8.34,0,1,1,8.94,9.67A8,8,0,0,1,245.35,186.37ZM239.58,177a7.23,7.23,0,1,0,6.52-6A7.24,7.24,0,0,0,239.58,177Z" style="fill:#7505FF"></path><path d="M227.75,185.76c-3.42-.11-6.09-3.94-5.94-8.53a9.82,9.82,0,0,1,1.94-5.77,5.19,5.19,0,0,1,8.89.28,9.93,9.93,0,0,1,1.58,5.88c-.14,4.35-2.75,7.85-5.93,8.13A4.87,4.87,0,0,1,227.75,185.76Zm-3.12-13.62a8.83,8.83,0,0,0-1.71,5.12c-.13,4,2.05,7.3,4.86,7.39s5.2-3.08,5.32-7.06a8.91,8.91,0,0,0-1.38-5.23,4.46,4.46,0,0,0-3.48-2.16h-.42A4.62,4.62,0,0,0,224.63,172.14Z" style="fill:#7505FF"></path><path d="M238.73,177.75l.75-.83c-1.24-1.1-4.11-2.62-6.22-.51l.79.79C235.93,175.3,238.62,177.65,238.73,177.75Z" style="fill:#7505FF"></path><path d="M274.79,182.79l1-.48c-.21-.47-2.13-4.59-4.49-5.06-2.21-.44-16.51.55-17.12.59l.06,1.12c4.1-.29,15.14-1,16.85-.62C272.61,178.66,274.28,181.66,274.79,182.79Z" style="fill:#7505FF"></path><path d="M262.35,179.33s4.88-8.18,8.29-6.32-.08,13.58-3.94,15.32-5.43-2.11-5.43-2.11Z" style="fill: rgb(255, 196, 192);"></path><path d="M269.56,176.34c.07,0,.08.09,0,.11-2.71,1.32-4.07,4.14-5,7.05.78-1.14,1.87-1.78,3.27-.78.07.05,0,.17-.07.16a2.36,2.36,0,0,0-2.67,1,14,14,0,0,0-1.21,2.42.26.26,0,0,1-.49-.16.19.19,0,0,0,0-.07C263.27,182.3,265.81,176.87,269.56,176.34Z" style="fill:#263238"></path><path d="M266.22,187.4a1,1,0,0,1-1.22.82,1.12,1.12,0,0,1-.76-1.32,1,1,0,0,1,1.22-.82A1.12,1.12,0,0,1,266.22,187.4Z" style="fill:#455a64"></path><path d="M265.7,187.27a.49.49,0,0,1-.58.39.53.53,0,0,1-.36-.63.49.49,0,0,1,.58-.39A.53.53,0,0,1,265.7,187.27Z" style="fill:#263238"></path><path d="M267.94,186a.71.71,0,0,1-.86.58.78.78,0,0,1-.53-.93.71.71,0,0,1,.86-.58A.77.77,0,0,1,267.94,186Z" style="fill:#455a64"></path><path d="M267,240.29c-.18,3.4-11.32,7.83-19.33,7.83s-19.14-4.43-19.33-7.83c-.13-2.61,7.08-20.94,10.44-29.32a18.18,18.18,0,0,1,17.69-.25C259.75,219,267.1,237.64,267,240.29Z" style="fill: rgb(255, 196, 192);"></path><path d="M360.1,309.16c-6.52,9.06-22.23,13.13-65.75,21-6,1.1-25.19-39.32-18.82-40.82,8-1.89,39.57-7.49,41.93-7.61C337.36,280.78,364.52,303,360.1,309.16Z" style="fill: rgb(255, 196, 192);"></path><path d="M293.47,288.84s-17.36-2.46-26.88-.94c-12.74,2.05-22.91,9.07-27,12.26-8.52,6.68-24.5,28.71-19,34.42,5,5.17,20.21-18.18,20.21-18.18s-19.42,21.25-12.24,26.36,23.29-23,23.29-23-19.47,22.28-11.23,26.38c6.23,3.1,22.25-21.53,22.25-21.53s-16.6,19.26-10.33,22.72c6.92,3.83,23.14-18,23.14-18,17.41,6.13,28.21,1.92,35.54-2C313,326.42,293.47,288.84,293.47,288.84Z" style="fill: rgb(255, 196, 192);"></path><path d="M247.1,308.63c-2.37,2.41-4.79,4.84-6.94,7.45s-4.21,5.31-6.1,8.11a58.33,58.33,0,0,0-6.35,11.61c3.49-7.06,11-16.54,13.19-19.15s4.16-5.33,6.31-7.94C247.26,308.64,247.16,308.57,247.1,308.63Z" style="fill:#263238"></path><path d="M256.69,316.22c-2.9,3.21-5.89,6.29-8.65,9.63s-5,6.72-7.55,10.23c-.2.26,0,.28.22,0,2.64-3.4,5.35-6.35,8-9.71s5.24-6.85,8-10.11C256.81,316.23,256.73,316.17,256.69,316.22Z" style="fill:#263238"></path><path d="M266.08,321.26c-4.67,4.68-8.48,10.22-12.09,15.74-.18.27.1.26.3,0,3.92-5.31,7-9.5,12-15.57C266.32,321.32,266.18,321.16,266.08,321.26Z" style="fill:#263238"></path><path d="M305.22,283.75A98.54,98.54,0,0,1,315.33,282c1.7-.23,3.41-.36,5.14-.43a21.14,21.14,0,0,1,5.2.43,50.45,50.45,0,0,1,9.77,3.32,44.91,44.91,0,0,1,8.89,5.14,46.47,46.47,0,0,0-4.52-2.39q-2.3-1.11-4.67-2a63.38,63.38,0,0,0-9.67-3.05,20.32,20.32,0,0,0-5-.46c-1.69,0-3.39.13-5.08.25s-3.4.29-5.09.47S306.92,283.57,305.22,283.75Z" style="fill:#263238"></path></g><g id="freepik--Device--inject-350"><rect x="205.41" y="350.68" width="100.47" height="4.51" style="fill:#455a64"></rect><rect x="255.31" y="350.68" width="50.57" height="4.51" style="fill:#c7c7c7"></rect><polygon points="256.49 355.18 158.56 355.18 144.73 288.68 242.65 288.68 256.49 355.18" style="fill:#dbdbdb"></polygon><path d="M208.2,323.41a5.77,5.77,0,0,1-5.84,6.53,7.41,7.41,0,0,1-7.21-6.53,5.76,5.76,0,0,1,5.84-6.52A7.43,7.43,0,0,1,208.2,323.41Z" style="fill:#fff"></path></g></svg>